<svg width="150" height="40" viewBox="0 0 150 40" fill="none" xmlns="http://www.w3.org/2000/svg">
<path fill-rule="evenodd" clip-rule="evenodd" d="M8.55273 3.59787C7.12207 4.59823 5.82837 5.78098 4.70532 7.1124C9.29462 6.68633 15.1252 7.38204 21.8944 10.7667C29.123 14.3809 34.9438 14.5031 38.9948 13.7217C38.6272 12.6088 38.1644 11.5392 37.6163 10.5224C32.979 11.0115 27.034 10.3641 20.1056 6.89998C15.706 4.70018 11.8278 3.79401 8.55273 3.59787ZM34.9074 6.66665C31.2453 2.575 25.9234 0 20 0C18.2605 0 16.5727 0.222107 14.9637 0.63948C17.1429 1.23409 19.4579 2.10399 21.8944 3.32227C26.967 5.85853 31.3464 6.67516 34.9074 6.66665ZM39.8609 17.6281C34.9669 18.5945 28.2088 18.396 20.1056 14.3444C12.53 10.5566 6.50043 10.6043 2.4339 11.508C2.224 11.5546 2.01904 11.6036 1.81903 11.6546C1.28662 12.8125 0.861634 14.0301 0.556702 15.2945C0.882386 15.2075 1.21893 15.1248 1.56616 15.0476C6.49957 13.9513 13.4701 13.9989 21.8944 18.2111C29.4701 21.9989 35.4996 21.9512 39.5662 21.0475C39.7055 21.0166 39.8428 20.9846 39.9778 20.9516C39.9926 20.6363 40 20.319 40 20C40 19.1975 39.9528 18.406 39.8609 17.6281ZM39.3248 25.1723C34.4783 26.0196 27.917 25.6944 20.1056 21.7888C12.53 18.001 6.50043 18.0487 2.4339 18.9524C1.53125 19.1529 0.719239 19.3972 0.00293 19.6551C0.000977 19.7698 0 19.8848 0 20C0 31.0457 8.95429 40 20 40C29.2571 40 37.0453 33.7109 39.3248 25.1723Z" fill="#E4F757"/>
<path d="M148.028 14.8153C148.104 14.8153 148.428 14.8343 149 14.8725V18.934H147.856C145.244 18.934 143.937 20.2687 143.937 22.9382V29.8027H139.476V15.0441H143.823V17.7899C144.509 15.8068 145.911 14.8153 148.028 14.8153Z" fill="#E4F757"/>
<path d="M136.687 14.8153C136.764 14.8153 137.088 14.8343 137.66 14.8725V18.934H136.516C133.903 18.934 132.597 20.2687 132.597 22.9382V29.8027H128.135V15.0441H132.483V17.7899C133.169 15.8068 134.571 14.8153 136.687 14.8153Z" fill="#E4F757"/>
<path d="M120.441 14.7009C122.005 14.7009 123.244 15.1776 124.159 16.131C125.094 17.0653 125.561 18.4 125.561 20.1352V29.8027H121.099V21.0219C121.099 19.3439 120.308 18.5049 118.725 18.5049C117.924 18.5049 117.257 18.7719 116.723 19.3058C116.189 19.8397 115.922 20.5929 115.922 21.5653V29.8027H111.46V15.0441H115.808V17.132C116.952 15.5113 118.496 14.7009 120.441 14.7009Z" fill="#E4F757"/>
<path d="M108.672 14.8153C108.748 14.8153 109.072 14.8343 109.644 14.8725V18.934H108.5C105.888 18.934 104.582 20.2687 104.582 22.9382V29.8027H100.12V15.0441H104.467V17.7899C105.154 15.8068 106.555 14.8153 108.672 14.8153Z" fill="#E4F757"/>
<path d="M98.3582 29.8027H93.8677C93.6389 29.3641 93.515 28.8112 93.4959 28.1438C92.5044 29.4785 90.9313 30.1459 88.7766 30.1459C87.1558 30.1459 85.8496 29.7455 84.8581 28.9446C83.8856 28.1438 83.3994 27.0378 83.3994 25.6268C83.3994 22.881 85.3253 21.3461 89.177 21.0219L91.4938 20.8217C92.7713 20.6882 93.4101 20.202 93.4101 19.363C93.4101 18.3714 92.6569 17.8757 91.1505 17.8757C90.2353 17.8757 89.587 18.0187 89.2056 18.3047C88.8433 18.5717 88.624 19.077 88.5478 19.8206H84.1145C84.3814 16.4075 86.7363 14.7009 91.1791 14.7009C95.5648 14.7009 97.7576 16.2168 97.7576 19.2486V27.0855C97.7576 28.3249 97.9578 29.2307 98.3582 29.8027ZM90.1209 27.1427C91.1315 27.1427 91.9323 26.8853 92.5234 26.3705C93.1145 25.8366 93.4101 25.0452 93.4101 23.9965V22.9096C93.1431 23.1956 92.6474 23.3863 91.9228 23.4817L90.0923 23.6819C88.6622 23.8344 87.9471 24.4255 87.9471 25.4552C87.9471 25.97 88.1378 26.38 88.5192 26.6851C88.9005 26.9902 89.4344 27.1427 90.1209 27.1427Z" fill="#E4F757"/>
<path d="M82.1954 22.8524V23.7391H71.2694C71.422 24.7497 71.7938 25.5219 72.3849 26.0558C72.976 26.5897 73.7292 26.8567 74.6444 26.8567C76.0936 26.8567 77.0851 26.3037 77.6191 25.1978H81.8521C81.4517 26.7232 80.6032 27.934 79.3066 28.8302C78.0099 29.7074 76.4559 30.1459 74.6444 30.1459C72.3563 30.1459 70.5067 29.4404 69.0957 28.0294C67.6846 26.6183 66.9791 24.7497 66.9791 22.4234C66.9791 20.078 67.6751 18.2094 69.0671 16.8174C70.44 15.4064 72.28 14.7009 74.5872 14.7009C76.8754 14.7009 78.725 15.435 80.136 16.9032C81.5089 18.3905 82.1954 20.3736 82.1954 22.8524ZM74.53 17.9901C72.6995 17.9901 71.6222 18.9626 71.298 20.9075H77.8193C77.6667 19.9922 77.3044 19.2772 76.7324 18.7623C76.1604 18.2475 75.4262 17.9901 74.53 17.9901Z" fill="#E4F757"/>
<path d="M56.8337 9.43811V25.4838H66.1579V29.8027H51.9999V9.43811H56.8337Z" fill="#E4F757"/>
</svg>
