<svg width="92" height="92" viewBox="0 0 92 92" fill="none" xmlns="http://www.w3.org/2000/svg">
<g clip-path="url(#clip0_8_64)">
<mask id="mask0_8_64" style="mask-type:luminance" maskUnits="userSpaceOnUse" x="-16" y="-16" width="124" height="124">
<path d="M68.2785 -15.1201L-15.1201 23.7215L23.7215 107.12L107.12 68.2785L68.2785 -15.1201Z" fill="white"/>
</mask>
<g mask="url(#mask0_8_64)">
<path d="M59.3579 45.0095C68.4927 44.3326 78.6959 38.9285 83.6376 32.1498L87.6993 26.5792L80.8216 26.1034C72.453 25.524 61.7512 29.8564 55.354 36.4126L50.557 41.3293C50.466 41.2289 50.3695 41.136 50.2734 41.042L54.7453 35.854C60.7259 28.9156 64.119 17.8802 62.8206 9.59235L61.7534 2.78128L56.5534 7.3079C50.2262 12.816 45.7222 23.4467 45.8346 32.6062L45.9164 39.221C45.7768 39.2188 45.6374 39.2169 45.4975 39.2238L45.0094 32.6419C44.332 23.5072 38.9281 13.3042 32.1497 8.36208L26.5792 4.30068L26.1033 11.1783C25.5241 19.5471 29.8564 30.249 36.4126 36.646L41.1366 41.2551C41.0412 41.3578 40.9529 41.4657 40.8649 41.5739L35.854 37.2547C28.9157 31.2743 17.8801 27.8809 9.5924 29.1795L2.78136 30.2468L7.30796 35.4467C12.816 41.7737 23.4468 46.278 32.6061 46.1652L39.4548 46.0808C39.4651 46.2148 39.4738 46.3486 39.4926 46.4827L32.642 46.9906C23.5072 47.6679 13.3042 53.0719 8.36214 59.8504L4.3007 65.4208L11.1783 65.8966C19.5472 66.4761 30.2491 62.1439 36.6459 55.5872L41.6675 50.4409C41.7645 50.5235 41.8619 50.6066 41.9634 50.6831L37.2548 56.146C31.2743 63.0842 27.8809 74.1198 29.1794 82.4075L30.2468 89.2186L35.4467 84.6919C41.7738 79.1841 46.278 68.5532 46.1653 59.3941L46.0739 51.9707C46.1959 51.9656 46.3183 51.9512 46.4407 51.9394L46.9907 59.3583C47.668 68.493 53.0721 78.6962 59.8505 83.638L65.421 87.6997L65.8972 80.8218C66.4763 72.4533 62.1442 61.7514 55.5879 55.3543L50.2626 50.1589C50.3506 50.0733 50.4406 49.9887 50.5227 49.8982L56.146 54.7452C63.0844 60.7259 74.1198 64.119 82.4075 62.8207L89.2187 61.7534L84.692 56.5534C79.1841 50.2262 68.5533 45.7222 59.394 45.8345L52.1822 45.9238C52.1891 45.7968 52.1883 45.6688 52.1871 45.541L59.3579 45.0095Z" fill="url(#paint0_linear_8_64)"/>
</g>
</g>
<defs>
<linearGradient id="paint0_linear_8_64" x1="58.6877" y1="-10.6533" x2="30.9675" y2="79.6419" gradientUnits="userSpaceOnUse">
<stop stop-color="#B0B9FF"/>
<stop offset="1" stop-color="#E7E9FF"/>
</linearGradient>
<clipPath id="clip0_8_64">
<rect width="92" height="92" fill="white"/>
</clipPath>
</defs>
</svg>
